<svg width="292" height="94.667" viewBox="0 0 292 94.666664" xmlns="http://www.w3.org/2000/svg"><g stroke-width="1.333"><path d="M1.028 48.286V.953h292V95.62h-292z" fill="#fefefe"/><path d="M210.628 91.353c-.88-.88-1.6-2.359-1.6-3.287 0-2.552 7.559-10.629 13.093-13.992 4.989-3.03 6.85-4.897 6.887-6.907.01-.615-1.826.435-4.082 2.334-2.256 1.898-4.836 3.452-5.734 3.452-4.753 0-6.364-7.864-2.95-14.4 4.23-8.097 14.947-14.934 23.41-14.934 4.908 0 4.977 1.013.77 11.333-2.875 7.054-3.01 8.089-1.134 8.751 1.756.621 1.532 1.219-1.285 3.435-1.877 1.476-4.288 4.782-5.36 7.346-2.46 5.89-9.546 14.02-14.413 16.536-4.538 2.346-5.543 2.39-7.601.332zm8.668-5.4c3.222-3.538 6.195-8.981 5.36-9.816-.793-.793-10.295 9.808-10.295 11.487 0 2.2 2.038 1.51 4.935-1.67zm7.627-22.392c5.4-5.977 9.752-14.072 8.33-15.494-2.042-2.042-12.68 10.787-14.83 17.886-1.368 4.519 1.065 3.623 6.5-2.392zm-209.23 7.39c-2.934-1.038-6.952-3.685-8.929-5.883C-2.024 53.075 7.083 35.88 28.65 27.523c9.233-3.578 31.11-4.392 39.376-1.466 5.824 2.062 7.048 5.158 1.333 3.374-2.016-.63-9.966-1.132-17.667-1.117-13.176.025-14.493.282-22.372 4.372-15.893 8.249-22.903 18.75-18.926 28.353 5.537 13.366 35.634 10.86 59.545-4.957 4.264-2.82 12.253-9.905 17.753-15.743 24.555-26.064 33.758-35.185 36.125-35.804 3.219-.842 3.232 1.032.038 5.547-1.377 1.946-6.55 11.639-11.496 21.539-4.946 9.9-10.16 19.65-11.587 21.667-1.427 2.016-2.325 3.666-1.995 3.666.33 0 9.772-11.7 20.983-26 16.57-21.134 20.994-26 23.645-26 3.106 0 3.164.148 1.232 3.097-5.424 8.278-17.536 31.147-22.098 41.725-5.988 13.884-7.343 18.715-5.558 19.818 2.106 1.3 9.575-3.138 16.377-9.733 4.088-3.962 6.334-5.39 6.334-4.026 0 2.511-9.992 12.012-15.781 15.007-2.248 1.162-5.316 2.113-6.82 2.113-3.896 0-8.066-4.69-8.066-9.07 0-3.68 7.644-20.468 13.476-29.597 4.106-6.426 1.952-4.051-9.22 10.166-10.314 13.128-27.168 29.76-27.908 27.542-.442-1.325 18.429-38.056 25.61-49.847 3.068-5.038 2.403-4.552-4.747 3.473-18.559 20.827-30.873 31.86-42.03 37.658-17.315 8.998-34.67 11.86-46.514 7.673zm138.53.56c-5.597-1.623-10.952-7.248-11.946-12.545-2.364-12.598 15.57-24.68 36.632-24.68 9.514 0 16.12 1.598 16.12 3.898 0 .814-1.517.769-4.071-.122-14.768-5.148-43.93 8.148-43.93 20.03 0 16.066 29.9 15.722 47.913-.551 3.905-3.529 7.523-9.159 12.264-19.085 3.698-7.744 8.422-16.224 10.497-18.844l3.773-4.764-4.36.509c-2.397.28-12.084-1.414-21.527-3.764-19.687-4.899-26.684-4.773-35.932.646-7.277 4.264-11.294 9.325-11.294 14.227 0 4.447-2.02 5.107-3.09 1.01-2.13-8.143 8.013-18.623 21.073-21.773 7.348-1.772 26.504-.819 40.504 2.015 13.282 2.688 16.65 2.78 21.846.597 3.579-1.505 2.793.954-2.151 6.731-2.467 2.882-6.102 9.724-8.079 15.204-6.929 19.21-13.05 27.401-26.27 35.147-10.969 6.426-27.644 9.112-37.973 6.115zm90.139-1.225c-3.209-3.208-3.311-5.207-.6-11.709 2.73-6.542 9.397-13.294 14.164-14.34 5.258-1.155 9.417 3.572 8.549 9.717-.337 2.383-.05 4.333.637 4.333s1.25.6 1.25 1.333-.887 1.334-1.97 1.334-2.945 1.49-4.138 3.31c-2.486 3.794-9.838 8.69-13.05 8.69-1.196 0-3.376-1.2-4.842-2.667zm11.833-4.885c3.083-3.74 3.73-5.438 2.763-7.246-1.765-3.298-1.574-8.312.404-10.582.917-1.052-.042-.422-2.13 1.4-4.847 4.23-8.87 12.06-8.87 17.26 0 5.523 2.844 5.22 7.833-.832zm6.383-15.448c-.37-.917-.672-.167-.672 1.667 0 1.833.302 2.583.672 1.666.37-.916.37-2.416 0-3.333zm10.5 20.86c-2.543-2.543-1.925-5.187 3.433-14.688 4.669-8.28 4.901-10.574.528-5.223-3.346 4.095-5.796 3.956-3.953-.224.58-1.315 1.104-4.49 1.165-7.057.088-3.704.648-4.667 2.717-4.667 1.475 0 2.922 1.157 3.333 2.667.417 1.527 1.858 2.666 3.376 2.666 4.391 0 3.834 4.131-1.979 14.661-5.548 10.051-5.193 12.841.906 7.112 1.694-1.592 3.532-2.442 4.085-1.89 1.24 1.241-6.992 8.784-9.587 8.784-1.036 0-2.847-.963-4.024-2.14z" fill="#e2e2e2"/><path d="M209.948 89.794c-1.177-3.068 3.97-9.86 10.966-14.469 3.65-2.405 7.32-5.872 8.154-7.705l1.516-3.334-3.777 3.471c-5.139 4.724-7.95 5.499-10.542 2.907-4.65-4.65 1.01-17.016 10.465-22.859 5.327-3.292 14.915-5.094 16.183-3.041.487.787-.896 5.617-3.073 10.733-2.761 6.488-3.382 9.08-2.05 8.57 1.048-.403 1.907-.05 1.907.785 0 .835-.899 1.863-1.997 2.284-1.099.422-3.894 4.324-6.211 8.672-5.132 9.628-11.792 15.811-17.03 15.811-2.095 0-4.126-.821-4.51-1.826zm10.48-4.507a7315.68 7315.68 0 0 0 4.307-6.667c1.164-1.805 1.368-3 .512-3-2.027 0-10.884 9.39-10.884 11.538 0 3.075 3.58 1.97 6.065-1.871zm3.53-18c3.892-3.081 11.739-14.513 11.739-17.102 0-4.078-3.442-2.99-7.706 2.435-8.548 10.877-11.136 20.29-4.032 14.667zM19.699 71.47C3.18 66.478-.738 50.011 11.756 38.093c10.21-9.74 29.698-15.667 45.277-13.772 7.9.961 16.93 4.147 15.581 5.496-.455.456-2.762.028-5.124-.95-2.44-1.011-8.941-1.748-15.043-1.705-12.481.087-21.803 3.173-31.796 10.526C12.788 43.473 9.044 49.38 9.037 56.014c-.01 10.349 10.92 15.66 27.328 13.279 20.3-2.947 38.002-13.278 54.778-31.972 19.443-21.665 30.32-32.367 32.897-32.367 2.757 0 2.747.073-.805 6-1.318 2.2-7.426 13.6-13.572 25.333-12.709 24.264-12.193 23.9 13.693-9.647 14.11-18.285 19.146-23.326 21.227-21.245.377.377-1.697 4.782-4.609 9.788-14.128 24.294-25.83 51.416-23.285 53.963 2.119 2.119 9.636-1.979 16.83-9.172 3.975-3.975 6.178-5.418 6.178-4.046 0 2.686-11.258 12.778-16.957 15.201-5.843 2.484-7.898 2.303-11.19-.99-2.325-2.324-2.66-3.77-1.933-8.32.792-4.954 7.735-18.98 15.61-31.532 4.263-6.797 1.384-3.56-8.302 9.333-9.324 12.412-30.835 34.512-31.539 32.403-.462-1.387 18.154-37.136 25.9-49.736 4.318-7.023 4.045-6.826-6.459 4.667-25.439 27.834-36.725 36.562-54.465 42.119-10.393 3.255-24.248 4.34-30.667 2.399zm137.16-.002c-7.16-2.03-12.131-7.835-12.302-14.366-.194-7.382 3.505-11.854 14.46-17.483 8.559-4.398 9.834-4.666 22.15-4.666 7.63 0 13.67.603 14.517 1.449 1.043 1.043-1.46 1.286-8.934.87-13.239-.74-23.278 2.723-31.93 11.013-5.281 5.06-5.915 6.287-5.54 10.725.648 7.692 5.474 10.61 17.553 10.61 8.135 0 10.935-.662 18.421-4.347 11.48-5.652 17.185-12.178 25.15-28.764 3.58-7.456 8.305-15.508 10.5-17.894l3.99-4.338-4.93.755c-3.296.505-10.096-.598-20.524-3.329-8.577-2.246-18.477-4.07-22-4.054-12.598.057-27.072 9.805-27.072 18.232 0 2.422-.6 4.405-1.333 4.405s-1.333-2.47-1.333-5.49c0-4.574.84-6.332 5.036-10.527 9.518-9.518 29.095-11.877 54.483-6.566 8.717 1.823 15.335 2.474 19.642 1.932l6.495-.817-4.695 5.485c-2.86 3.34-6.377 10.148-8.996 17.414-7.348 20.378-16.86 30.72-34.224 37.218-8.895 3.328-21.757 4.468-28.582 2.533zm90.509.076c-2.935-1.75-3.145-10.489-.382-15.833 2.424-4.687 9.191-10.493 13.486-11.57 4.638-1.165 8.828 3.996 7.866 9.688-.391 2.315-.182 4.415.465 4.667 1.833.711-12.254 12.868-15.876 13.7-1.775.407-4.277.114-5.56-.65zm10.876-5.987c3.33-3.793 3.885-5.227 2.804-7.246-1.843-3.444-1.692-8.46.32-10.589 1.375-1.455 1.143-1.494-1.329-.222-3.057 1.573-7.803 9.605-9.81 16.604-2.187 7.625 1.939 8.373 8.015 1.453zm6.79-13.35c0-1.935-.576-3.055-1.333-2.588-.733.453-1.333 1.989-1.333 3.412s.6 2.588 1.333 2.588c.734 0 1.334-1.535 1.334-3.412zm10.123 18.213c-2.182-2.411-2.061-2.99 2.545-12.137 5.035-9.998 5.465-12.564 1.34-8.006-2.987 3.3-5.214 3.508-3.511.327.69-1.291.997-3.841.682-5.667-.316-1.825-.021-4.156.656-5.18 1.658-2.508 5.5-.859 5.5 2.361 0 1.864.691 2.403 2.482 1.935 4.804-1.257 4.414 3.584-1.161 14.412-3.689 7.164-4.82 10.487-3.567 10.487 1.007 0 2.918-1.2 4.245-2.667 3.109-3.435 5.176-3.444 3.34-.014-1.165 2.178-7.726 6.68-9.734 6.68-.29 0-1.557-1.139-2.817-2.531z" fill="#d7d7d7"/><path d="M210.358 88.466c0-4.258 4.337-9.483 11.218-13.516 3.13-1.834 6.435-4.983 7.346-6.999l1.657-3.665-3.85 3.667c-5.173 4.927-10.66 4.961-11.888.075-2.06-8.21 10.018-21.94 20.851-23.705 7.946-1.295 8.541.284 4.134 10.972-2.732 6.624-3.342 9.27-2.023 8.764 1.039-.399 1.89-.042 1.89.793 0 .834-.929 1.873-2.063 2.309-1.134.435-3.554 3.736-5.378 7.337-4.728 9.329-12.871 17.12-17.893 17.12-3.317 0-4-.538-4-3.153zm12.485-6.54c2.157-3.49 3.58-6.685 3.163-7.103-1.163-1.163-11.648 9.844-11.648 12.228 0 3.996 4.543 1.252 8.485-5.125zm6.046-19.973c2.906-3.85 5.91-8.65 6.677-10.667 1.215-3.199 1.071-3.667-1.129-3.667-3.631 0-14.746 15.025-14.746 19.934 0 3.462 4.362.807 9.198-5.6zm-207.2 9.829C10.001 68.716 5.022 63.165 5.022 53.2c0-9.563 5.128-16.015 17.643-22.201 15.063-7.445 33.678-9.002 46.228-3.868 6.648 2.72 4.564 3.234-3.873.957-23.295-6.289-55.998 9.8-55.998 27.549 0 15.758 23.845 19.235 49.325 7.193C72.54 56.123 79.763 50.068 99.73 28.14c17.336-19.039 22.638-23.884 25.145-22.98.7.253-.672 3.76-3.048 7.792-2.377 4.034-8.613 15.733-13.858 26-9.131 17.871-9.315 18.411-4.32 12.667 2.869-3.3 12.002-14.822 20.295-25.604C137.593 8.268 142.528 3.348 144.599 5.42c.39.391-1.39 4.196-3.957 8.456-10.317 17.123-24.955 49.058-24.955 54.442 0 4.95 9.741.34 18.624-8.813 2.957-3.047 5.377-4.748 5.377-3.78 0 2.74-12.954 14.23-17.872 15.853-9.869 3.257-14.754-3.389-10.785-14.669 1.81-5.143 8.604-17.627 15.033-27.622 1.06-1.65 1.62-3 1.243-3s-4.611 5.25-9.41 11.667c-9.075 12.139-30.892 34.763-32.23 33.425-.423-.423 1.108-3.95 3.4-7.84 2.294-3.888 6.825-12.357 10.07-18.818 3.246-6.462 8.315-15.802 11.265-20.757l5.364-9.01-11.657 12.668C78.757 55.169 68.846 62.84 50.905 68.805c-9.283 3.086-23.345 4.519-29.219 2.978zm137.33 0c-9.788-2.527-14-7.235-14-15.651 0-7.13 4.811-12.532 15.531-17.44 9.607-4.397 25.293-5.734 32.469-2.767 4.516 1.867 4.323 1.91-6 1.349-13.549-.737-23.503 2.666-32.215 11.014-5.281 5.06-5.915 6.287-5.541 10.725.661 7.842 5.427 10.616 18.192 10.583 8.535-.022 11.446-.645 17.564-3.757 11.315-5.756 16.761-11.924 24.918-28.217 4.038-8.067 9.463-16.873 12.054-19.569l4.712-4.903-5.424 1.377c-4.61 1.17-7.833.755-21.468-2.764-17.15-4.426-25.02-5.06-32.26-2.6-10.674 3.627-19.809 13.58-17.644 19.224.613 1.598.403 2.035-.662 1.376-.858-.53-1.56-3.121-1.56-5.758 0-3.86 1.041-5.785 5.336-9.87 9.987-9.5 28.191-11.657 53.731-6.364 8.657 1.793 15.883 2.54 19.933 2.061l6.353-.752-4.019 4.271c-2.226 2.366-6.137 9.719-8.766 16.48-6.835 17.58-11.997 25.51-20.43 31.393-12.463 8.695-30.227 13.291-40.805 10.56zm89-.216c-2.473-.984-3-2.22-3-7.037 0-7.248 5.986-16.204 12.707-19.012 6.083-2.541 6.375-2.479 8.968 1.91 1.69 2.861 1.956 4.83 1.072 7.914-.994 3.465-.85 3.979.924 3.298 1.388-.533 1.774-.277 1.136.754-.53.858-1.507 1.56-2.17 1.56-.664 0-3.478 2.354-6.255 5.23-5.62 5.823-8.929 7.154-13.381 5.383zm10.195-5.993c4.742-5.4 4.667-5.143 2.502-8.61-1.252-2.004-1.279-3.568-.116-6.648.836-2.216 1.003-4.029.37-4.029-1.983 0-7.81 8.596-9.963 14.7-3.581 10.15.206 12.561 7.207 4.587zm6.805-13.444c0-1.883-.58-2.975-1.333-2.51-.734.454-1.334 2.325-1.334 4.158 0 1.883.58 2.975 1.334 2.51.733-.454 1.333-2.324 1.333-4.158zm10.222 18.602c-1.828-1.827-.766-6.302 3.31-13.948 4.122-7.735 4.377-12.482.361-6.749-2.595 3.705-5.195 3.93-3.241.28.776-1.451 1.059-4.046.627-5.765-.495-1.973-.036-3.748 1.243-4.81 2.544-2.11 4.81-.806 4.81 2.77 0 1.817.637 2.486 1.903 2 1.047-.402 2.56.062 3.363 1.03 1.1 1.326.09 4.43-4.102 12.608-3.06 5.968-5.167 11.246-4.683 11.731.485.485 2.669-.831 4.853-2.924 4.892-4.687 6.604-3.76 2.077 1.124-3.067 3.31-8.496 4.679-10.52 2.653z" fill="#c6c6c6"/><path d="M210.358 88.865c0-4.634 2.399-7.63 10.525-13.15 4.287-2.911 8.119-6.532 8.515-8.045.67-2.564.448-2.524-3.263.598-9.043 7.61-14.535 1.889-9.054-9.432 3.886-8.027 12.69-13.884 20.87-13.884 6.153 0 6.422.235 4.464 3.893-.702 1.311-2.522 5.544-4.044 9.405-2.283 5.793-2.41 6.884-.724 6.237 2.877-1.104 2.548.842-.46 2.72-1.377.86-3.814 4.27-5.416 7.579-4.32 8.925-12.5 16.833-17.412 16.833-3.155 0-4.001-.583-4.001-2.755zm12.787-7.33c1.946-3.32 3.228-6.345 2.85-6.723-1.379-1.38-11.637 9.77-11.637 12.648 0 2.49.385 2.713 2.625 1.515 1.443-.773 4.216-4.12 6.162-7.44zm5.567-18.893c8.723-11.098 10.436-19.841 2.697-13.753-7.849 6.173-15.84 23.697-9.18 20.133 1.395-.747 4.313-3.618 6.484-6.38zM21.812 71.5c-7.1-1.718-13.342-5.782-15.223-9.91-3.73-8.188-.238-19.449 8.035-25.912 8.668-6.771 18.456-9.937 32.41-10.483 12.916-.505 24.66 1.246 24.66 3.678 0 .633-2.85.263-6.334-.823-4.316-1.345-9.487-1.755-16.238-1.288-12.594.873-26.474 7.353-34.574 16.14-4.724 5.125-5.521 6.835-5.521 11.84 0 11.39 8.591 16.516 25.362 15.133 20.816-1.717 37.93-12.039 60.54-36.513 19.609-21.223 27.12-28.41 29.69-28.41 1.605 0 1.436.859-.854 4.334-1.57 2.383-7.103 12.733-12.294 23-5.19 10.267-10.565 20.259-11.942 22.206-1.377 1.946-2.504 3.949-2.504 4.45 0 1.28 11.557-12.662 28-33.78 7.7-9.888 15.02-18.61 16.269-19.38 3.785-2.339 4.102-.037.74 5.377-10.877 17.515-26.342 50.617-26.342 56.384 0 1.768.866 2.743 2.438 2.743 3.16 0 14.137-7.283 17.585-11.665 1.474-1.875 3.071-3.018 3.548-2.541 1.371 1.371-10.159 11.634-16.016 14.257-6.171 2.763-10.11 1.869-12.502-2.838-.887-1.746-1.25-4.684-.808-6.527 1.066-4.439 7.21-16.647 13.955-27.73 9.216-15.142 8.535-14.76-4.237 2.378-8.306 11.146-31.443 36-33.513 36-1.165 0 14.71-30.963 23.846-46.514 3.183-5.416 5.618-10.008 5.412-10.204-.207-.196-6.975 7.122-15.042 16.262-15.395 17.444-25.72 26.257-38.061 32.486-13.72 6.926-30.702 10.22-40.487 7.85zm135.93-.505c-15.84-4.25-17.408-19.903-2.907-29.01 8.404-5.277 19.909-8.141 29.583-7.365 13.346 1.072 14.575 3.29 1.44 2.6-10.428-.546-12.01-.279-19.757 3.347-11.646 5.45-17.071 11.097-17.071 17.77 0 9.155 7.452 13.066 22.03 11.561 17.18-1.773 28.234-10.87 38.795-31.929 3.969-7.914 9.456-16.868 12.194-19.898 4.557-5.045 4.696-5.417 1.646-4.413-5.304 1.745-12.461 1.016-25.866-2.636-13.181-3.591-24.8-4.338-31.045-1.996-9.833 3.688-19.035 13.33-17.225 18.046.396 1.034.14 1.88-.57 1.88-2.25 0-1.387-7.16 1.415-11.756 1.797-2.948 5.242-5.59 10.328-7.92 10.895-4.993 24.396-5.49 44.733-1.644 8.79 1.662 18.073 2.668 20.995 2.277 5.752-.772 5.75-.7-.149 7.043-1.956 2.567-4.92 8.567-6.59 13.333-1.668 4.767-4.394 11.367-6.056 14.667-6.524 12.947-21.851 23.505-38.546 26.555-9.418 1.72-9.016 1.732-17.376-.512zm88.888-.976c-5.516-5.516 2.732-21.876 12.685-25.16 5.693-1.88 7.193-.763 2.202 1.639-4.55 2.19-10.964 12.248-12.04 18.884-.714 4.397-.495 4.903 2.12 4.903 4.108 0 11.114-7.902 10.047-11.333-2.078-6.678-2.063-8.36.092-10.516 3.515-3.515 5.294-1.84 5.294 4.988 0 4.57.462 6.051 1.736 5.56.954-.367 1.369-.075.92.65-.447.725-1.308 1.318-1.912 1.318s-3.497 2.4-6.43 5.334c-5.55 5.548-11.412 7.036-14.715 3.733zm18.4-17.067c0-2.2-.6-4-1.333-4s-1.333 1.8-1.333 4 .6 4 1.333 4 1.333-1.8 1.333-4zm10.222 17.778c-1.908-1.908-.693-6.538 3.843-14.65 3.047-5.448 4.111-8.461 2.988-8.461-.96 0-2.494 1.2-3.41 2.666s-2.334 2.667-3.15 2.667c-1.033 0-.994-.593.128-1.945.953-1.149 1.27-3.52.771-5.788-.575-2.62-.208-4.37 1.157-5.503 2.483-2.06 4.785-.786 4.785 2.648 0 1.7.915 2.588 2.666 2.588 4.04 0 3.355 4.36-2.31 14.721-5.433 9.933-5.122 13.123.73 7.515 5.106-4.89 6.998-4.528 2.247.43-3.575 3.732-8.39 5.166-10.444 3.112z" fill="#b0b0b0"/><path d="M210.808 89.53c-1.33-3.466 2.18-8.162 10.414-13.939 4.293-3.011 7.805-5.987 7.805-6.614 0-.626.415-2.238.923-3.581.573-1.517-.73-.8-3.436 1.89-4.898 4.87-8.75 5.538-10.718 1.858-2.244-4.193.738-11.396 7.174-17.328 6.328-5.834 9.987-7.31 16.429-6.627l4.073.431-3.14 7.693c-1.728 4.23-3.564 9.026-4.082 10.656-.869 2.737-.747 2.815 1.585 1.025 1.39-1.066.942-.162-.994 2.01s-4.743 6.39-6.237 9.374c-3.287 6.563-12.562 15.242-16.289 15.242-1.487 0-3.065-.94-3.506-2.09zm8.498-2.243c3.19-3.49 7.525-11.64 6.654-12.512-1.033-1.033-8.94 6.326-10.927 10.168-2.975 5.752-.224 7.261 4.273 2.343zm7.508-22.273c5.958-6.594 10.858-15.948 9.216-17.59-2.957-2.958-16.336 13.25-16.336 19.79 0 4.353 1.665 3.839 7.12-2.2zm-210.52 4.73c-6.68-2.909-11.267-9.435-11.267-16.03 0-15.641 20.824-28.761 45.652-28.761 10.332 0 21.014 2.06 21.014 4.054 0 .53-2.25.162-5-.82-16.938-6.044-43.068 2.21-54.698 17.278-4.15 5.378-4.134 15.264.032 19.166 9.327 8.737 28.72 7.5 50.333-3.213 8.892-4.408 12.806-7.813 35.333-30.737 13.933-14.18 26.124-25.77 27.09-25.754 1.257.019 1.019 1.071-.837 3.693-1.427 2.017-6.837 12.067-12.023 22.333-5.185 10.267-11.007 21.367-12.938 24.667l-3.51 6 4.171-4.667c2.294-2.567 12.212-14.94 22.041-27.498C137.4 9.381 142.833 3.65 144.535 5.352c.254.254-3.372 7.181-8.058 15.393-9.73 17.052-19.274 38.078-20.38 44.901-.643 3.96-.375 4.64 1.826 4.64 3.483 0 13.938-6.765 17.548-11.355 1.609-2.045 3.256-3.386 3.662-2.981.99.99-8.07 9.945-13.271 13.118-4.718 2.876-11.514 3.342-13.903.952-4.632-4.631-.47-16.8 13.212-38.632 3.596-5.738 6.257-10.434 5.912-10.434-.345 0-5.256 6.15-10.913 13.667-9.8 13.021-31.821 37-33.978 37-1.275 0 14.269-30.054 23.665-45.755 3.868-6.465 6.517-11.565 5.886-11.333-.63.233-7.804 7.83-15.94 16.882-8.137 9.054-17.626 18.8-21.086 21.66-7.737 6.393-21.28 13.581-30.934 16.418-8.722 2.564-25.87 2.702-31.49.253zm137.4-.09c-6.053-3.2-8.666-7.06-8.666-12.802 0-6.957 5.546-13.08 16.297-17.993 7.106-3.247 10.08-3.826 19.703-3.839 6.233-.008 12.346.576 13.583 1.299 1.57.916-.942 1.168-8.316.834-12.289-.559-20.183 1.73-29.634 8.588-10.715 7.776-11.338 18.577-1.315 22.765 7.459 3.116 21.745 1.85 30.727-2.723 10.923-5.561 17.05-12.66 24.272-28.128 3.525-7.547 8.537-16.079 11.138-18.958l4.73-5.236-7.602.55c-5.438.394-11.206-.438-20.26-2.919-16.545-4.535-26.602-4.566-35.547-.108-8.078 4.025-10.766 6.79-13.177 13.549-1.787 5.009-1.816 5.026-1.868 1.088-.144-10.725 12.278-19.066 30.198-20.28 7.64-.518 14.595.089 26.168 2.283 9.07 1.72 18.269 2.706 21.667 2.323 3.247-.366 5.904-.46 5.904-.209s-1.78 2.485-3.958 4.964c-2.176 2.48-5.812 9.55-8.08 15.713-7.563 20.561-14.502 28.833-30.44 36.292-10.85 5.078-28.69 6.558-35.522 2.948zm92.933.366c-2.599-2.599-1.84-9.089 1.785-15.275 3.279-5.594 7.01-8.386 13.948-10.44 2.689-.795 2.43-.376-1.333 2.166-4.996 3.375-12 15.469-12 20.722 0 5.02 5.766 4.098 10.125-1.618 3.116-4.085 3.39-5.16 2.062-8.077-2.31-5.07-.625-9.877 3.464-9.877 3.192 0 3.328.301 2.692 5.945-.42 3.734-.113 6.175.827 6.562.963.396.883.653-.224.72-.946.059-4.003 2.506-6.793 5.44-5.292 5.562-11.206 7.08-14.553 3.733zm18.4-17.067c0-2.2-.6-4-1.333-4s-1.333 1.8-1.333 4 .6 4 1.333 4 1.333-1.8 1.333-4zm10.222 17.778c-1.733-1.733-.832-5.047 3.814-14.024 3.54-6.841 4.21-9.086 2.713-9.086-1.094 0-2.63 1.2-3.416 2.666-.785 1.467-2.126 2.667-2.98 2.667-1.156 0-1.144-.41.047-1.6.88-.88 1.6-3.88 1.6-6.667 0-4.178.468-5.066 2.667-5.066 1.778 0 2.666.888 2.666 2.666s.89 2.667 2.667 2.667c3.988 0 3.368 4.313-2 13.91-2.567 4.59-4.667 9.038-4.667 9.884 0 2.501 2.558 1.77 6.061-1.734 1.8-1.8 3.273-2.805 3.273-2.232s-1.389 2.345-3.086 3.939c-3.005 2.823-7.566 3.803-9.359 2.01z" fill="#a0a0a0"/><path d="M211.248 90.731c-2.245-2.246-.388-6.005 5.278-10.685 10.664-8.807 13.833-12.148 13.833-14.585 0-1.866-.953-1.44-4.526 2.022-6.102 5.915-9.345 5.218-9.88-2.124-.354-4.856.245-6.291 4.667-11.192 5.702-6.319 11.447-9.213 18.287-9.213h4.634l-3.925 9.516c-4.543 11.017-4.81 12.774-1.59 10.48 1.283-.914.833-.202-1 1.582-1.834 1.785-4.773 6.07-6.532 9.523-5.19 10.192-15.71 18.213-19.247 14.676zm8.036-3.444c8.335-9.185 9.322-16.061 1.293-9.012-5.6 4.916-8.068 8.764-6.867 10.706 1.235 1.999 2.598 1.585 5.574-1.695zm8.126-22.848c8.306-9.012 12.22-18.152 7.771-18.152-4.293 0-18.004 19.676-15.986 22.94 1.23 1.99 2.825 1.059 8.214-4.788zM16.36 69.603c-6.437-3.477-9.9-7.422-10.82-12.326C3.635 47.113 9.974 37.66 23.084 31.114c9.221-4.604 16.736-6.125 29.277-5.927l10.667.168-12 .906c-18.732 1.415-34.97 10.256-40.743 22.183-2.609 5.39-2.761 6.68-1.345 11.406 4.425 14.77 33.48 13.912 59.628-1.758 4.105-2.46 12.338-9.554 18.295-15.765 26.272-27.388 36.424-37.375 37.996-37.375 1.149 0 .876 1.166-.858 3.667-1.398 2.016-7.23 12.667-12.961 23.667-5.73 11-11.593 21.685-13.028 23.743-1.435 2.059-2.34 4.012-2.011 4.34.76.76 14.143-15.275 30.858-36.974C138.276 8.572 142.96 3.774 144.505 5.319c.235.236-1.708 3.975-4.32 8.31-10.95 18.18-24.491 47.787-24.491 53.553 0 2.34.746 3.104 3.037 3.104 3.61 0 7.529-2.476 15.617-9.864 4.927-4.502 5.281-4.673 2-.965C129.964 66.67 122.4 71.62 117.76 71.62c-13.101 0-9.317-14.697 12.275-47.667 1.08-1.65 1.635-3 1.232-3s-5.695 6.45-11.76 14.333C108 50.243 91.517 68.218 87.155 70.566c-2.43 1.308-2.424 1.174.147-3.124 1.478-2.47 6.48-11.69 11.116-20.49 4.636-8.8 10.753-19.816 13.594-24.48 2.841-4.664 4.91-8.734 4.6-9.045-.311-.311-6.686 6.331-14.165 14.762-22.03 24.829-32.863 33.39-50.177 39.659-10.657 3.858-30.246 4.816-35.91 1.756zm136.83-.415c-5.415-2.984-8.048-7.33-8.112-13.392-.1-9.582 15.467-19.222 33.437-20.706l8.516-.703-9.085 1.912c-25.507 5.37-39.078 23.973-23.4 32.08 5.99 3.099 22.232 2.059 30.667-1.963 11.467-5.468 16.515-11.106 24.8-27.698 4.227-8.466 9.593-17.622 11.925-20.347l4.24-4.955-6.988.58c-4.967.411-10.82-.482-20.24-3.09-16.37-4.532-27.331-4.776-35.563-.791-7.429 3.596-12.988 9.38-14.478 15.064-1.146 4.37-1.155 4.358-.569-.78 1.898-16.638 25.732-22.795 60.858-15.723 10.152 2.045 15.347 2.514 18.333 1.658 2.292-.657 4.167-.958 4.167-.668 0 .29-1.862 2.648-4.137 5.24-2.281 2.597-6.168 10.174-8.662 16.88-2.488 6.693-5.74 14.136-7.225 16.539-4.219 6.826-12.836 13.88-22.455 18.38-11.368 5.32-28.71 6.515-36.029 2.482zm93.44.832c-2.105-2.106-2.027-6.796.202-12.13 2.058-4.926 10.577-12.936 13.758-12.936 1.504 0 1.083.826-1.424 2.798-4.915 3.866-10.52 15.315-9.822 20.066.601 4.097-.182 4.734-2.713 2.203zm11.343-3.076c3.939-3.939 4.519-5.252 3.68-8.333-1.244-4.575-1.099-8.382.375-9.856.623-.623.888.966.589 3.532-.334 2.856.029 4.666.934 4.666 1.36 0 2.105-3.616 1.58-7.667-.12-.916.463-1.666 1.294-1.666.979 0 1.352 2.234 1.059 6.333-.387 5.404-1.293 7.165-6.171 12-3.145 3.117-6.235 5.667-6.867 5.667-.632 0 .955-2.104 3.527-4.676zm16.808 2.505c-.477-1.243 1.233-6.347 4.003-11.945 4.654-9.404 4.74-14.93.125-7.885-2.214 3.378-4.478 3.795-2.406.442.59-.955.9-3.749.688-6.208-.321-3.732.02-4.389 2.06-3.968 1.346.277 2.363 1.53 2.261 2.786-.127 1.569.81 2.282 3 2.282 4.402 0 4.07 2.911-1.512 13.27-6.56 12.177-6.104 14.926 1.517 9.146l3.847-2.917-3.232 3.583c-3.604 3.995-9.074 4.742-10.351 1.414zm-84.667-33.407c.962-.385 2.112-.338 2.555.105.443.443-.344.759-1.75.7-1.553-.063-1.869-.38-.805-.805zM65.694 27.62c-1.759-.756-1.986-1.171-.667-1.22 1.1-.04 2.9.509 4 1.22 2.437 1.575.332 1.575-3.333 0z" fill="#898989"/><path d="M210.808 89.516c-1.006-2.621 2.852-7.912 8.93-12.248 3.755-2.679 4-2.74 1.295-.327-7.187 6.413-10.428 14.292-5.332 12.96 1.468-.385 2.333-.155 1.922.51-1.229 1.988-5.946 1.368-6.815-.895zm12.79-7.433c3.087-5.528 3.751-7.722 2.489-8.228-1.289-.517-1.307-.717-.073-.796 1.384-.089 5.685-8.056 5.685-10.53 0-.421-2.229 1.302-4.953 3.83-4.831 4.48-4.818 4.442.553-1.587 8.772-9.845 12.314-18.486 7.58-18.486-2.907 0-10.57 8.566-13.997 15.644-2.34 4.835-2.505 6.096-1.027 7.877 1.516 1.827 1.396 2.05-.865 1.62-2.842-.543-4.012-4.752-2.735-9.84 1.155-4.602 7.102-11.073 12.892-14.027 5.209-2.657 13.219-3.54 13.219-1.458 0 .633-1.791 5.493-3.98 10.802-3.362 8.153-3.62 9.527-1.667 8.847 2.103-.732 2.096-.636-.079 1.055-1.316 1.023-3.862 4.808-5.657 8.411-1.796 3.603-5.14 8.318-7.43 10.476l-4.166 3.926zM25.367 70.649c2.75-.288 7.25-.288 10 0 2.75.287.5.523-5 .523s-7.75-.236-5-.523zm62.667-3.836c1.873-2.966 6.23-11.048 9.683-17.96 3.453-6.912 9.212-17.45 12.797-23.418 6.843-11.39 7.585-13.19 4.852-11.775-.916.475.575-1.29 3.314-3.921 6.473-6.22 8.516-6.115 4.182.214-1.884 2.75-7.507 13.1-12.495 23s-10.63 20.277-12.535 23.06c-4.776 6.974-4.34 7.604 1.522 2.202 3.698-3.407 4.13-3.613 1.667-.795-1.826 2.09-6.261 6.273-9.856 9.293l-6.535 5.493zm24.428 2.712c-4.47-4.471-.969-14.822 12.633-37.341 6.875-11.382 7.735-13.418 4.938-11.694-.916.565.937-2.25 4.12-6.255 6.255-7.873 13.31-12.52 8.983-5.918-11.068 16.892-30.194 58.477-27.894 60.649.618.584 2.324 1.35 3.79 1.703 2.065.496 1.86.676-.904.796-1.964.085-4.514-.788-5.667-1.94zm50.268 1.122c2.767-.289 6.967-.284 9.334.01 2.367.295.103.531-5.03.526-5.133-.006-7.07-.247-4.304-.536zm84.4-1.122c-1.153-1.153-2.083-3.103-2.067-4.334.056-4.227 4.929-13.018 9.217-16.627 5.76-4.846 7.403-4.588 2.718.428-4.643 4.97-8.513 14.714-7.646 19.25.756 3.958.563 4.07-2.223 1.283zm28.522.036c-1.427-1.72-.905-3.597 3.17-11.399 2.684-5.137 4.879-10.21 4.879-11.275 0-1.064.9-1.935 2-1.935 3.15 0 2.374 3.765-2.667 12.935-5.004 9.105-5.63 11.787-3 12.848 1.061.429.879.711-.503.778-1.194.058-2.94-.821-3.879-1.953zm-231.95-.608c4.56-1.46 8.065-1.46 4.667 0-1.467.63-3.867 1.129-5.333 1.107-2.144-.031-2.013-.249.666-1.107zm139.52-1.327c11.65-4.677 18.37-11.842 26.72-28.494 7.681-15.315 13.068-23.512 15.454-23.512.76 0 .485 1.05-.612 2.333-1.096 1.284-3.378 6.234-5.072 11-4.83 13.595-10.69 23.8-16.547 28.813-5.96 5.103-16.634 10.644-22.8 11.838-2.317.449-1.114-.384 2.857-1.978zm76.198-1.923c3.202-4.012 3.84-5.67 2.712-7.03-1.14-1.374-1.02-1.605.53-1.01 1.442.553 2.243-.413 2.849-3.44.463-2.316.456-4.899-.015-5.74-.635-1.135-.426-1.133.812.009 3.204 2.957.406 11.594-5.596 17.274l-5.48 5.187zm24.944 1.917c1.328-1.467 2.714-2.667 3.08-2.667.367 0-.42 1.2-1.746 2.667-1.328 1.467-2.714 2.667-3.08 2.667-.367 0 .419-1.2 1.746-2.667zm-135.88-2.77c-4.258-5.06-4.387-10.115-.409-16.018 3.61-5.356 15.07-11.418 23.636-12.503l5.988-.759-5.333 1.801c-19.61 6.621-29.011 18.385-22.13 27.693 3.795 5.132 2.626 4.99-1.752-.213zm-139.38-.78C-4.644 46.59 19.962 24.436 52.317 25.165l9.387.211-11.446.81c-9.59.68-13.092 1.625-21.595 5.827-17.373 8.586-24.361 20.066-18.607 30.57C13.3 68.505 12.983 69 9.105 64.07zm45.266 1.55c1.834-1.048 3.934-1.906 4.667-1.906s-.167.858-2 1.906-3.933 1.905-4.667 1.905c-.733 0 .167-.857 2-1.905zm79.333-4.667c2.865-2.933 5.508-5.333 5.875-5.333s-1.677 2.4-4.541 5.333c-2.865 2.934-5.508 5.334-5.875 5.334s1.677-2.4 4.541-5.334zM65.55 60.67c11.8-8.06 19.49-14.97 30.748-27.634 13.605-15.302 18.635-19.912 8.53-7.818-10.954 13.113-29.8 31.08-35.79 34.12-3.3 1.676-4.87 2.275-3.488 1.331zm195.49-8.304c0-1.79.492-3.558 1.092-3.93.6-.37.833 1.094.516 3.255-.7 4.765-1.608 5.147-1.608.675zM108.95 46.62c3.211-3.85 6.095-7 6.409-7 .905 0-7.307 10.06-9.9 12.128-1.291 1.03.28-1.278 3.491-5.128zm166.75 5.258c0-.789.56-1.78 1.246-2.204.685-.423.896-2.92.47-5.547-.678-4.179-.458-4.717 1.754-4.288 3.43.665 3.22 4.97-.47 9.66-1.65 2.098-3 3.168-3 2.38zm-154-21.592c3.386-4.4 6.456-8 6.823-8 .366 0-2.104 3.6-5.49 8-3.385 4.4-6.455 8-6.822 8s2.104-3.6 5.49-8zm26.115-4.802c-.3-7.335 14.777-19.415 23.791-19.063 2.685.104 2.334.39-1.615 1.321-10.118 2.383-18.668 9.205-20.905 16.684-.891 2.977-1.182 3.22-1.27 1.058zm56.552-13.311c-3.666-1.11-11.767-3.196-18-4.637l-11.333-2.62 10 .705c5.5.387 16.404 1.97 24.23 3.518 11.62 2.298 15.038 2.532 18.636 1.278 3.462-1.207 4.058-1.188 2.784.087-3.41 3.41-17.587 4.309-26.316 1.669z" fill="#797979"/></g></svg>