<?xml version="1.0" encoding="UTF-8"?>
<!-- Created with Inkscape (http://www.inkscape.org/) -->
<svg width="292" height="94.667" version="1.1" viewBox="0 0 292 94.666664" xmlns="http://www.w3.org/2000/svg" xmlns:cc="http://creativecommons.org/ns#" xmlns:dc="http://purl.org/dc/elements/1.1/" xmlns:rdf="http://www.w3.org/1999/02/22-rdf-syntax-ns#">
 <metadata>
  <rdf:RDF>
   <cc:Work rdf:about="">
    <dc:format>image/svg+xml</dc:format>
    <dc:type rdf:resource="http://purl.org/dc/dcmitype/StillImage"/>
    <dc:title/>
   </cc:Work>
  </rdf:RDF>
 </metadata>
 <g transform="translate(1.0282 .95305)" stroke-width="1.3333">
  <path d="m0 47.333v-47.333h292v94.667h-292z" fill="#fefefe"/>
  <path d="m209.6 90.4c-0.88-0.88-1.6-2.3591-1.6-3.2869 0-2.5523 7.5584-10.629 13.093-13.992 4.9884-3.0303 6.8497-4.8971 6.8864-6.9067 0.0107-0.61519-1.8256 0.43481-4.0819 2.3333-2.2562 1.8985-4.8362 3.4519-5.7333 3.4519-4.7534 0-6.3645-7.8638-2.9501-14.4 4.23-8.0969 14.947-14.934 23.41-14.934 4.9073 0 4.9762 1.0132 0.76972 11.333-2.8753 7.0542-3.0094 8.0889-1.1345 8.7517 1.7562 0.62088 1.5326 1.2186-1.285 3.435-1.8762 1.4758-4.2878 4.7812-5.3592 7.3453-2.4612 5.8905-9.5466 14.02-14.413 16.536-4.5381 2.3467-5.5429 2.3906-7.6016 0.33189zm8.6676-5.4c3.2227-3.5383 6.1953-8.9815 5.3607-9.8161-0.79342-0.79342-10.295 9.8079-10.295 11.487 0 2.1995 2.0377 1.5097 4.9343-1.6705zm7.6268-22.392c5.3996-5.9767 9.7524-14.072 8.3306-15.494-2.0424-2.0425-12.68 10.787-14.83 17.886-1.3685 4.5187 1.0645 3.6232 6.4989-2.392zm-209.23 7.3894c-2.9333-1.0371-6.9512-3.6842-8.9285-5.8825-10.788-11.993-1.6814-29.188 19.885-37.545 9.2325-3.5778 31.11-4.3924 39.376-1.4661 5.8243 2.0619 7.0478 5.1582 1.3333 3.3745-2.0167-0.6295-9.9667-1.1325-17.667-1.1177-13.176 0.025227-14.493 0.28272-22.372 4.3721-15.893 8.2489-22.903 18.751-18.926 28.353 5.5363 13.366 35.634 10.86 59.545-4.9568 4.264-2.8206 12.253-9.9049 17.753-15.743 24.555-26.064 33.758-35.185 36.125-35.804 3.2185-0.84166 3.2313 1.0323 0.0377 5.5466-1.377 1.9465-6.5504 11.639-11.496 21.539-4.9459 9.9-10.16 19.65-11.587 21.667-1.427 2.0167-2.3247 3.6667-1.9949 3.6667 0.32977 0 9.7722-11.7 20.983-26 16.569-21.134 20.994-26 23.645-26 3.1053 0 3.164 0.14769 1.2318 3.0967-5.4241 8.2782-17.536 31.147-22.098 41.725-5.9879 13.884-7.3426 18.715-5.5575 19.818 2.1051 1.301 9.575-3.1382 16.377-9.7327 4.0872-3.9623 6.3333-5.3903 6.3333-4.0264 0 2.5116-9.9913 12.012-15.781 15.007-2.2474 1.1622-5.3161 2.1131-6.8192 2.1131-3.8963 0-8.0662-4.6891-8.0662-9.0705 0-3.6791 7.6439-20.467 13.476-29.596 4.1054-6.4264 1.9518-4.0517-9.2198 10.166-10.315 13.128-27.169 29.76-27.909 27.542-0.44182-1.3255 18.429-38.056 25.61-49.847 3.0687-5.0389 2.403-4.552-4.7471 3.4725-18.558 20.827-30.872 31.861-42.029 37.658-17.316 8.9978-34.67 11.86-46.515 7.6726zm138.53 0.56123c-5.5962-1.6236-10.952-7.2488-11.946-12.546-2.3633-12.598 15.57-24.679 36.632-24.679 9.5139 0 16.12 1.5973 16.12 3.8976 0 0.81374-1.5167 0.76824-4.0708-0.12213-14.768-5.1483-43.929 8.148-43.929 20.03 0 16.066 29.899 15.722 47.912-0.55143 3.9055-3.5284 7.5236-9.1587 12.264-19.085 3.6983-7.7441 8.422-16.224 10.497-18.844l3.773-4.7638-4.3593 0.50892c-2.3976 0.27991-12.085-1.4137-21.528-3.7636-19.687-4.8991-26.684-4.7734-35.932 0.64585-7.2766 4.2644-11.294 9.3254-11.294 14.227 0 4.4466-2.0192 5.1067-3.0904 1.0104-2.1294-8.143 8.0139-18.623 21.074-21.773 7.3478-1.7722 26.504-0.81953 40.504 2.0145 13.282 2.6885 16.65 2.7806 21.846 0.59677 3.5787-1.5043 2.793 0.95416-2.1514 6.7312-2.4666 2.882-6.1019 9.7237-8.0786 15.204-6.9289 19.21-13.051 27.401-26.271 35.147-10.968 6.4263-27.643 9.1116-37.972 6.1148zm90.139-1.2252c-3.2085-3.2085-3.3108-5.2079-0.59909-11.709 2.7287-6.5423 9.3968-13.294 14.163-14.341 5.258-1.1549 9.4171 3.5725 8.5492 9.7173-0.33664 2.3833-0.0497 4.3333 0.63744 4.3333 0.68722 0 1.2495 0.6 1.2495 1.3333s-0.88617 1.3333-1.9693 1.3333c-1.0831 0-2.9452 1.4894-4.138 3.3099-2.4864 3.7948-9.8379 8.6901-13.05 8.6901-1.1968 0-3.376-1.2-4.8426-2.6667zm11.833-4.8854c3.0837-3.741 3.731-5.4382 2.7638-7.2457-1.7652-3.2982-1.574-8.3122 0.40346-10.582 0.91667-1.0523-0.0417-0.42235-2.1298 1.4-4.8473 4.2305-8.8702 12.059-8.8702 17.26 0 5.5225 2.8438 5.2203 7.8328-0.83225zm6.3836-15.448c-0.36988-0.91667-0.67252-0.16667-0.67252 1.6667 0 1.8333 0.30264 2.5833 0.67252 1.6667 0.36988-0.91667 0.36988-2.4167 0-3.3333zm10.5 20.86c-2.5432-2.5432-1.9253-5.1875 3.4324-14.688 4.6693-8.2802 4.9015-10.574 0.52866-5.2231-3.3463 4.0947-5.7958 3.9561-3.9531-0.22372 0.57973-1.315 1.1038-4.4908 1.1647-7.0575 0.0879-3.7042 0.64825-4.6667 2.7172-4.6667 1.4754 0 2.922 1.1572 3.3333 2.6667 0.41636 1.5277 1.8579 2.6667 3.3752 2.6667 4.3918 0 3.8344 4.1305-1.9785 14.661-5.5483 10.051-5.193 12.841 0.90557 7.1117 1.6944-1.5918 3.5326-2.4422 4.085-1.8898 1.2406 1.2406-6.9918 8.784-9.5863 8.784-1.036 0-2.847-0.96322-4.0242-2.1405z" fill="#e2e2e2"/>
  <path d="m208.92 88.841c-1.1773-3.0681 3.9704-9.8602 10.966-14.469 3.6503-2.4047 7.3193-5.8722 8.1534-7.7055l1.5166-3.3333-3.7769 3.4712c-5.1392 4.7233-7.9501 5.4984-10.542 2.9068-4.6504-4.6504 1.0105-17.016 10.465-22.859 5.3264-3.2919 14.915-5.094 16.183-3.0415 0.48656 0.78725-0.89656 5.6171-3.0736 10.733-2.7609 6.4881-3.3812 9.0802-2.0505 8.5696 1.0492-0.40263 1.9077-0.04903 1.9077 0.78577 0 0.83481-0.89879 1.8627-1.9973 2.2843-1.0985 0.42154-3.8934 4.3238-6.2108 8.6718-5.1314 9.6275-11.792 15.811-17.029 15.811-2.096 0-4.1263-0.82166-4.5116-1.8259zm10.48-4.5074c1.3045-2.0167 3.2425-5.0167 4.3067-6.6667 1.1643-1.8051 1.3684-3 0.51244-3-2.0269 0-10.884 9.3892-10.884 11.538 0 3.0749 3.5802 1.9703 6.0651-1.8712zm3.5304-18c3.8914-3.0808 11.738-14.513 11.738-17.102 0-4.0777-3.4416-2.9899-7.7053 2.4355-8.5478 10.877-11.136 20.29-4.0325 14.667zm-204.26 4.1848c-16.519-4.9939-20.438-21.46-7.9433-33.378 10.21-9.7399 29.698-15.667 45.277-13.772 7.8989 0.96105 16.93 4.1465 15.581 5.4957-0.45575 0.45575-2.7618 0.02787-5.1247-0.95084-2.4393-1.0104-8.9406-1.747-15.043-1.7044-12.481 0.087191-21.803 3.1733-31.796 10.526-7.8618 5.7846-11.606 11.693-11.613 18.326-0.010192 10.349 10.921 15.66 27.328 13.279 20.3-2.9466 38.002-13.278 54.778-31.972 19.443-21.665 30.32-32.367 32.897-32.367 2.7576 0 2.7478 0.073115-0.80447 6-1.3186 2.2-7.4258 13.6-13.572 25.333-12.709 24.264-12.193 23.9 13.693-9.6469 14.109-18.285 19.146-23.326 21.227-21.245 0.37688 0.37689-1.697 4.7817-4.6088 9.7884-14.128 24.294-25.831 51.416-23.285 53.963 2.1182 2.1182 9.6356-1.979 16.829-9.1723 3.9755-3.9755 6.1783-5.4181 6.1783-4.046 0 2.6861-11.258 12.778-16.957 15.201-5.8431 2.4843-7.8977 2.3026-11.19-0.98938-2.3247-2.3247-2.6605-3.7706-1.9329-8.3212 0.79212-4.9537 7.7356-18.98 15.61-31.532 4.2632-6.7962 1.3847-3.5597-8.3013 9.3333-9.3245 12.412-30.835 34.512-31.539 32.403-0.4624-1.3872 18.154-37.136 25.9-49.736 4.3177-7.0231 4.0444-6.8257-6.4591 4.6667-25.439 27.834-36.725 36.562-54.465 42.119-10.393 3.2558-24.248 4.3397-30.667 2.3993zm137.16-0.0021c-7.1597-2.0298-12.132-7.8357-12.303-14.366-0.19356-7.382 3.5051-11.854 14.46-17.483 8.5594-4.3981 9.834-4.6667 22.15-4.6667 7.6295 0 13.671 0.60301 14.517 1.449 1.0431 1.0431-1.4592 1.2867-8.9333 0.86952-13.239-0.7389-23.278 2.7243-31.93 11.014-5.2814 5.0604-5.9151 6.287-5.541 10.725 0.64838 7.6923 5.4745 10.609 17.554 10.609 8.1345 0 10.935-0.66082 18.421-4.3462 11.479-5.6518 17.185-12.178 25.15-28.764 3.5803-7.456 8.305-15.508 10.499-17.894l3.9898-4.3377-4.9288 0.75486c-3.2959 0.50477-10.096-0.59814-20.524-3.329-8.5772-2.2461-18.477-4.0706-22-4.0545-12.598 0.057598-27.072 9.8051-27.072 18.232 0 2.4228-0.6 4.4051-1.3333 4.4051s-1.3333-2.4706-1.3333-5.4902c0-4.5736 0.84092-6.3311 5.0367-10.527 9.5178-9.5178 29.095-11.877 54.483-6.566 8.7168 1.8235 15.335 2.4747 19.642 1.9326l6.4949-0.81753-4.6952 5.4853c-2.8597 3.341-6.3767 10.148-8.9964 17.414-7.3481 20.378-16.859 30.721-34.224 37.218-8.8949 3.328-21.757 4.4681-28.582 2.5333zm90.508 0.07615c-2.9344-1.7497-3.1449-10.489-0.38122-15.833 2.4238-4.6871 9.1908-10.493 13.486-11.571 4.6379-1.1641 8.8273 3.9964 7.8654 9.6886-0.39128 2.3154-0.18183 4.4154 0.46547 4.6667 1.8332 0.71165-12.254 12.868-15.876 13.7-1.7748 0.40738-4.2768 0.11461-5.5602-0.65059zm10.876-5.9875c3.3306-3.7933 3.8854-5.2266 2.8048-7.2457-1.8433-3.4442-1.6919-8.4608 0.31961-10.589 1.3754-1.455 1.1431-1.4938-1.329-0.22209-3.0574 1.5729-7.8028 9.6045-9.8102 16.604-2.1868 7.6251 1.9388 8.3729 8.0148 1.4528zm6.7911-13.35c0-1.9352-0.57712-3.0553-1.3333-2.588-0.73334 0.45323-1.3333 1.9886-1.3333 3.412s0.6 2.588 1.3333 2.588c0.73333 0 1.3333-1.5354 1.3333-3.412zm10.122 18.213c-2.1821-2.4112-2.0607-2.9897 2.5456-12.137 5.0351-9.9984 5.4644-12.564 1.3398-8.0063-2.9874 3.301-5.2141 3.5086-3.5115 0.32732 0.691-1.2911 0.9979-3.8411 0.68201-5.6667-0.31589-1.8255-0.0207-4.1566 0.65599-5.1801 1.6582-2.5082 5.4995-0.85909 5.4995 2.361 0 1.8635 0.6921 2.4027 2.4828 1.9344 4.8037-1.2562 4.4138 3.584-1.1612 14.412-3.6887 7.1644-4.8189 10.487-3.5671 10.487 1.0077 0 2.9182-1.2 4.2455-2.6667 3.1089-3.4353 5.1764-3.4438 3.3407-0.0138-1.1655 2.1777-7.7267 6.6805-9.7345 6.6805-0.28942 0-1.5573-1.1393-2.8175-2.5319z" fill="#d7d7d7"/>
  <path d="m209.33 87.513c0-4.2583 4.3365-9.4832 11.218-13.516 3.1291-1.8338 6.4348-4.9833 7.346-6.9991l1.6568-3.6649-3.8498 3.6667c-5.1731 4.927-10.661 4.9616-11.888 0.07492-2.0603-8.209 10.018-21.94 20.851-23.705 7.9462-1.2942 8.5409 0.28457 4.1338 10.972-2.7316 6.6241-3.3425 9.2704-2.0234 8.7642 1.0393-0.39882 1.8897-0.04211 1.8897 0.7927 0 0.83481-0.92784 1.8739-2.0619 2.309-1.134 0.43516-3.5545 3.7368-5.3789 7.337-4.7275 9.3292-12.871 17.121-17.893 17.121-3.317 0-4-0.5385-4-3.1535zm12.485-6.5401c2.1572-3.4891 3.5805-6.6854 3.163-7.1029-1.1628-1.1628-11.648 9.844-11.648 12.228 0 3.9955 4.5425 1.2519 8.4849-5.1248zm6.0458-19.973c2.906-3.85 5.9106-8.65 6.6768-10.667 1.2153-3.1986 1.0712-3.6667-1.1285-3.6667-3.6315 0-14.746 15.025-14.746 19.934 0 3.4621 4.3614 0.80633 9.1974-5.6005zm-207.2 9.8286c-11.688-3.0658-16.667-8.6165-16.667-18.582 0-9.5624 5.1282-16.015 17.643-22.201 15.063-7.4445 33.678-9.002 46.228-3.8679 6.6481 2.7197 4.564 3.2347-3.8732 0.95699-23.295-6.2886-55.998 9.7998-55.998 27.549 0 15.758 23.845 19.235 49.325 7.1938 14.194-6.7075 21.416-12.762 41.383-34.69 17.336-19.039 22.638-23.884 25.145-22.98 0.69986 0.25228-0.67177 3.7587-3.0481 7.792-2.3763 4.0333-8.6124 15.733-13.858 26-9.1309 17.871-9.315 18.411-4.3202 12.667 2.8695-3.3 12.002-14.822 20.295-25.604 13.649-17.747 18.584-22.667 20.655-20.596 0.39062 0.39062-1.3896 4.1954-3.9561 8.4551-10.317 17.123-24.955 49.058-24.955 54.442 0 4.9502 9.7407 0.34121 18.624-8.8123 2.9569-3.0469 5.3761-4.748 5.3761-3.7802 0 2.7393-12.954 14.23-17.872 15.853-9.8684 3.2569-14.754-3.3886-10.785-14.669 1.8097-5.1431 8.6042-17.627 15.033-27.622 1.0614-1.65 1.6211-3 1.2438-3s-4.6115 5.25-9.4094 11.667c-9.0764 12.139-30.893 34.763-32.231 33.425-0.42255-0.42255 1.1079-3.9502 3.4009-7.8393 2.2931-3.889 6.8243-12.358 10.07-18.819 3.2452-6.4615 8.3142-15.802 11.264-20.757l5.3642-9.009-11.657 12.667c-25.352 27.548-35.263 35.22-53.204 41.184-9.2832 3.0858-23.345 4.5191-29.219 2.9784zm137.33 3.88e-4c-9.7885-2.527-14-7.2352-14-15.651 0-7.1295 4.811-12.532 15.531-17.439 9.6065-4.398 25.293-5.7354 32.469-2.7684 4.5164 1.8672 4.3233 1.9106-6 1.3492-13.549-0.73676-23.503 2.6662-32.215 11.014-5.2814 5.0604-5.9151 6.287-5.541 10.725 0.66105 7.8427 5.4274 10.616 18.192 10.583 8.5352-0.02177 11.446-0.64434 17.564-3.7566 11.315-5.7559 16.761-11.924 24.918-28.217 4.0382-8.0667 9.4627-16.873 12.054-19.569l4.7123-4.9028-5.4242 1.3768c-4.6096 1.17-7.8335 0.755-21.468-2.7638-17.15-4.4261-25.021-5.0605-32.26-2.6004-10.674 3.6275-19.809 13.58-17.644 19.224 0.61323 1.598 0.40331 2.0346-0.66182 1.3763-0.85796-0.53024-1.5599-3.1216-1.5599-5.7585 0-3.8594 1.0406-5.7843 5.336-9.8705 9.9867-9.5001 28.191-11.656 53.731-6.3637 8.6568 1.7939 15.883 2.5413 19.933 2.0616l6.353-0.75242-4.0191 4.2717c-2.2261 2.366-6.1369 9.7184-8.7661 16.48-6.835 17.579-11.997 25.51-20.43 31.393-12.463 8.6941-30.227 13.291-40.805 10.56zm89-0.21634c-2.4732-0.98385-3-2.2195-3-7.0363 0-7.2479 5.9858-16.204 12.707-19.012 6.0826-2.5415 6.3749-2.4792 8.968 1.9106 1.6895 2.8601 1.9564 4.8299 1.0722 7.9128-0.99391 3.4656-0.85011 3.9793 0.92341 3.2987 1.3888-0.53292 1.7739-0.27746 1.1366 0.75382-0.53026 0.85796-1.507 1.5599-2.1706 1.5599-0.66356 0-3.4781 2.3538-6.2546 5.2306-5.6192 5.8222-8.9289 7.1534-13.381 5.3821zm10.195-5.9924c4.742-5.4008 4.667-5.1429 2.5018-8.61-1.2515-2.0039-1.2787-3.5677-0.11586-6.6486 0.83634-2.2156 1.0032-4.0284 0.37093-4.0284-1.9836 0-7.8101 8.5958-9.9634 14.699-3.5816 10.151 0.20515 12.562 7.2066 4.5881zm6.8048-13.444c0-1.8827-0.58025-2.9747-1.3333-2.5093-0.73334 0.45323-1.3333 2.324-1.3333 4.1574 0 1.8827 0.58026 2.9747 1.3333 2.5093 0.73333-0.45323 1.3333-2.324 1.3333-4.1574zm10.222 18.602c-1.8275-1.8275-0.76572-6.3023 3.3095-13.948 4.1229-7.7354 4.3775-12.482 0.36196-6.7491-2.5953 3.7053-5.195 3.93-3.2417 0.28025 0.77688-1.4516 1.0594-4.0461 0.62786-5.7656-0.49506-1.9725-0.0364-3.7473 1.2427-4.8088 2.5439-2.1112 4.8108-0.8067 4.8108 2.7684 0 1.8173 0.63638 2.4864 1.9025 2.0006 1.0464-0.40154 2.5596 0.06173 3.3628 1.0295 1.1007 1.3263 0.0905 4.431-4.1027 12.609-3.0596 5.9675-5.1666 11.246-4.6822 11.731 0.48442 0.48441 2.6682-0.83177 4.8529-2.9248 4.8917-4.6865 6.6034-3.7598 2.0769 1.1244-3.067 3.3094-8.4962 4.6786-10.521 2.6534z" fill="#c6c6c6"/>
  <path d="m209.33 87.912c0-4.6342 2.3987-7.631 10.525-13.15 4.2871-2.9113 8.1186-6.5317 8.5144-8.0453 0.67056-2.5642 0.44803-2.5234-3.2624 0.59867-9.0429 7.6091-14.535 1.8881-9.0544-9.4324 3.886-8.0275 12.69-13.884 20.871-13.884 6.152 0 6.4208 0.23453 4.4629 3.893-0.70182 1.3114-2.5213 5.5436-4.0433 9.405-2.2835 5.7933-2.4101 6.8836-0.72394 6.2365 2.877-1.104 2.5474 0.8426-0.46071 2.7212-1.3772 0.86008-3.8141 4.2701-5.4154 7.5778-4.3206 8.9253-12.501 16.833-17.412 16.833-3.155 0-4.0015-0.58263-4.0015-2.7543zm12.787-7.3304c1.9454-3.3196 3.2278-6.345 2.8498-6.7231-1.3787-1.3787-11.637 9.771-11.637 12.648 0 2.4913 0.38535 2.7138 2.6248 1.5153 1.4437-0.77262 4.2166-4.1208 6.162-7.4405zm5.5672-18.893c8.7221-11.098 10.436-19.841 2.6964-13.753-7.8487 6.1738-15.839 23.697-9.1803 20.133 1.3952-0.74668 4.313-3.6178 6.484-6.3802zm-206.9 8.8586c-7.0998-1.7182-13.342-5.7823-15.223-9.9112-3.7305-8.1875-0.23882-19.448 8.0344-25.911 8.6681-6.7712 18.456-9.9369 32.411-10.483 12.915-0.50509 24.659 1.2464 24.659 3.6775 0 0.6333-2.85 0.26313-6.3333-0.8226-4.3163-1.3454-9.4879-1.7554-16.239-1.2876-12.593 0.87268-26.473 7.3522-34.573 16.139-4.7244 5.1254-5.5219 6.8355-5.5219 11.841 0 11.39 8.5914 16.516 25.362 15.133 20.816-1.7169 37.93-12.039 60.541-36.513 19.608-21.223 27.119-28.41 29.689-28.41 1.6052 0 1.4361 0.85869-0.85374 4.3333-1.5706 2.3833-7.1027 12.733-12.294 23-5.1908 10.267-10.565 20.259-11.942 22.206-1.3772 1.9465-2.5041 3.949-2.5041 4.4499 0 1.2799 11.557-12.662 28-33.779 7.7-9.8885 15.021-18.61 16.269-19.381 3.7856-2.3384 4.1022-0.036478 0.73978 5.3779-10.877 17.515-26.342 50.617-26.342 56.384 0 1.7676 0.86652 2.7421 2.4381 2.7421 3.1595 0 14.137-7.2824 17.585-11.665 1.4746-1.8746 3.0715-3.0179 3.5487-2.5407 1.3711 1.3711-10.159 11.634-16.016 14.257-6.1714 2.763-10.111 1.8688-12.502-2.8375-0.88722-1.7465-1.2509-4.6839-0.80809-6.5275 1.066-4.4387 7.2096-16.647 13.955-27.73 9.2155-15.142 8.5349-14.76-4.2368 2.3783-8.3064 11.146-31.443 36-33.513 36-1.165 0 14.709-30.963 23.846-46.514 3.1823-5.416 5.6173-10.008 5.4111-10.204-0.20624-0.19606-6.975 7.1219-15.042 16.262-15.395 17.444-25.72 26.257-38.061 32.486-13.719 6.9256-30.702 10.219-40.487 7.8505zm135.93-0.50479c-15.84-4.251-17.408-19.903-2.9074-29.01 8.4036-5.2773 19.909-8.1418 29.583-7.3652 13.346 1.0713 14.575 3.29 1.4396 2.6006-10.428-0.54734-12.009-0.27961-19.757 3.3462-11.646 5.4496-17.071 11.097-17.071 17.769 0 9.1556 7.4528 13.067 22.031 11.562 17.18-1.7731 28.233-10.87 38.794-31.929 3.969-7.914 9.4562-16.868 12.194-19.898 4.5578-5.045 4.6965-5.4169 1.646-4.413-5.3032 1.7452-12.461 1.0156-25.866-2.6365-13.181-3.5909-24.8-4.3377-31.045-1.9953-9.8322 3.6879-19.035 13.329-17.225 18.046 0.3967 1.0338 0.14012 1.8797-0.57019 1.8797-2.2488 0-1.3869-7.1605 1.4152-11.756 1.7973-2.9479 5.242-5.5895 10.328-7.9204 10.895-4.9929 24.396-5.489 44.733-1.6438 8.7901 1.662 18.073 2.6687 20.995 2.2768 5.7522-0.77153 5.7506-0.69877-0.14857 7.0438-1.9556 2.5667-4.9208 8.5667-6.5894 13.333-1.6686 4.7667-4.3942 11.367-6.0571 14.667-6.5237 12.947-21.851 23.505-38.546 26.555-9.4172 1.7201-9.0157 1.7319-17.376-0.51187zm88.888-0.97641c-5.5165-5.5165 2.7314-21.876 12.685-25.161 5.6926-1.8787 7.1922-0.76207 2.202 1.6397-4.5508 2.1902-10.964 12.248-12.041 18.884-0.71357 4.3972-0.49457 4.9037 2.1205 4.9037 4.1083 0 11.114-7.9029 10.047-11.333-2.0778-6.6784-2.0631-8.3608 0.0919-10.516 3.5154-3.5154 5.2938-1.84 5.2938 4.9874 0 4.5695 0.46255 6.0512 1.7359 5.5608 0.95475-0.36773 1.3694-0.07547 0.92131 0.64947-0.44804 0.72493-1.3086 1.3181-1.9124 1.3181s-3.4978 2.4-6.4311 5.3333c-5.5486 5.5486-11.411 7.0361-14.714 3.7333zm18.4-17.067c0-2.2-0.6-4-1.3333-4-0.73334 0-1.3333 1.8-1.3333 4 0 2.2 0.6 4 1.3333 4 0.73333 0 1.3333-1.8 1.3333-4zm10.222 17.778c-1.9079-1.9079-0.69322-6.5381 3.843-14.65 3.0469-5.4484 4.1107-8.4615 2.9874-8.4615-0.95949 0-2.4939 1.2-3.4099 2.6667s-2.3337 2.6667-3.1506 2.6667c-1.0325 0-0.99306-0.59312 0.1292-1.9454 0.95296-1.1482 1.2687-3.5197 0.77064-5.7875-0.57554-2.6204-0.20764-4.3702 1.157-5.5027 2.4824-2.0602 4.7844-0.78626 4.7844 2.6477 0 1.6991 0.91592 2.588 2.6667 2.588 4.0397 0 3.3552 4.36-2.3109 14.721-5.432 9.9328-5.1217 13.123 0.73111 7.5152 5.1051-4.891 6.9973-4.5283 2.2465 0.43054-3.5748 3.7313-8.39 5.1656-10.444 3.1111z" fill="#b0b0b0"/>
  <path d="m209.78 88.577c-1.3299-3.4656 2.1793-8.1625 10.414-13.939 4.2926-3.0111 7.8048-5.9874 7.8048-6.6139 0-0.62652 0.41523-2.2382 0.92272-3.5815 0.573-1.5167-0.72928-0.79996-3.4359 1.891-4.8982 4.8698-8.7489 5.5369-10.718 1.857-2.244-4.1929 0.73802-11.396 7.1738-17.328 6.3287-5.8336 9.9875-7.3095 16.429-6.6271l4.0735 0.43157-3.1406 7.6924c-1.7274 4.2308-3.564 9.0261-4.0813 10.656-0.86877 2.7373-0.74761 2.8156 1.585 1.0252 1.3891-1.0662 0.94168-0.16154-0.99431 2.0105s-4.7425 6.39-6.2368 9.3734c-3.2875 6.5638-12.562 15.242-16.289 15.242-1.4876 0-3.0656-0.94048-3.5066-2.0899zm8.4973-2.2434c3.1912-3.4901 7.5258-11.64 6.6541-12.512-1.0324-1.0324-8.9404 6.3267-10.927 10.168-2.9749 5.7528-0.22396 7.2616 4.273 2.3436zm7.5088-22.273c5.9574-6.5941 10.858-15.948 9.216-17.59-2.9572-2.9572-16.336 13.251-16.336 19.791 0 4.3526 1.6646 3.838 7.1204-2.201zm-210.52 4.7311c-6.6796-2.9094-11.267-9.4362-11.267-16.03 0-15.642 20.824-28.762 45.652-28.762 10.332 0 21.014 2.0608 21.014 4.0539 0 0.53084-2.25 0.1622-5-0.81919-16.938-6.0446-43.068 2.2095-54.698 17.278-4.1503 5.3775-4.1342 15.264 0.031317 19.166 9.3269 8.737 28.72 7.4987 50.333-3.2139 8.8924-4.4075 12.806-7.8121 35.333-30.737 13.933-14.179 26.124-25.769 27.091-25.754 1.2566 0.019041 1.0179 1.0716-0.83741 3.6933-1.4272 2.0167-6.8375 12.067-12.023 22.333-5.1854 10.267-11.007 21.367-12.938 24.667l-3.5097 6 4.1706-4.6667c2.2938-2.5667 12.212-14.941 22.041-27.498 15.713-20.074 21.146-25.806 22.848-24.103 0.25397 0.25397-3.3722 7.1808-8.058 15.393-9.7297 17.052-19.274 38.078-20.381 44.901-0.64252 3.9594-0.37428 4.6407 1.827 4.6407 3.4826 0 13.938-6.7656 17.548-11.356 1.6085-2.0449 3.2561-3.3863 3.6614-2.9811 0.99072 0.99072-8.0686 9.9452-13.271 13.118-4.7177 2.8767-11.514 3.3424-13.903 0.95267-4.6318-4.6318-0.47012-16.8 13.212-38.632 3.5966-5.7388 6.2571-10.434 5.9122-10.434-0.34489 0-5.2559 6.15-10.913 13.667-9.7999 13.021-31.821 37-33.978 37-1.2743 0 14.269-30.054 23.665-45.755 3.8686-6.4654 6.5177-11.565 5.8867-11.333-0.63099 0.2321-7.8044 7.8291-15.941 16.882-8.1365 9.0531-17.625 18.8-21.085 21.659-7.7372 6.3936-21.28 13.582-30.934 16.419-8.722 2.5634-25.87 2.7012-31.491 0.253zm137.4-0.090541c-6.0535-3.1993-8.6667-7.0593-8.6667-12.802 0-6.9572 5.5465-13.081 16.297-17.993 7.1062-3.2469 10.08-3.8263 19.703-3.8391 6.2333-0.0083 12.346 0.57609 13.583 1.2986 1.57 0.91678-0.94202 1.1687-8.3154 0.83383-12.289-0.55808-20.183 1.7298-29.634 8.5885-10.715 7.7756-11.338 18.577-1.3149 22.765 7.4584 3.1163 21.745 1.8503 30.727-2.7229 10.923-5.5613 17.049-12.66 24.272-28.128 3.5243-7.5475 8.5365-16.079 11.138-18.958l4.7302-5.2358-7.6026 0.54992c-5.438 0.39335-11.206-0.43785-20.259-2.9193-16.546-4.5353-26.603-4.5659-35.548-0.10815-8.0776 4.0253-10.766 6.7894-13.177 13.549-1.7864 5.0088-1.8155 5.0258-1.8682 1.0883-0.14354-10.725 12.278-19.066 30.198-20.281 7.6398-0.51759 14.595 0.089433 26.168 2.2838 9.0703 1.7198 18.269 2.7062 21.667 2.3232 3.2474-0.36603 5.9044-0.46009 5.9044-0.20902s-1.781 2.485-3.9578 4.9642c-2.1768 2.4792-5.8128 9.5501-8.0799 15.713-7.5636 20.561-14.502 28.833-30.441 36.292-10.85 5.0775-28.69 6.5578-35.521 2.9474zm92.933 0.366c-2.5989-2.5989-1.8404-9.0888 1.7852-15.275 3.2784-5.5942 7.0086-8.3862 13.948-10.44 2.6884-0.7956 2.4304-0.37656-1.3333 2.1658-4.996 3.3747-12 15.469-12 20.722 0 5.0191 5.7656 4.0976 10.125-1.6182 3.1154-4.0845 3.3901-5.1607 2.0616-8.0764-2.3106-5.0711-0.62476-9.8778 3.4644-9.8778 3.1916 0 3.3282 0.30174 2.692 5.9455-0.42089 3.7342-0.11347 6.1746 0.8266 6.5614 0.96308 0.39628 0.88344 0.65341-0.22333 0.72114-0.94604 0.05789-4.0031 2.5053-6.7936 5.4386-5.2922 5.5632-11.206 7.0803-14.553 3.7333zm18.4-17.067c0-2.2-0.6-4-1.3333-4-0.73334 0-1.3333 1.8-1.3333 4 0 2.2 0.6 4 1.3333 4 0.73333 0 1.3333-1.8 1.3333-4zm10.222 17.778c-1.7334-1.7334-0.83232-5.0471 3.8134-14.024 3.5404-6.8414 4.2109-9.0867 2.7136-9.0867-1.0938 0-2.631 1.2-3.4159 2.6667-0.78493 1.4667-2.126 2.6667-2.9802 2.6667-1.1558 0-1.1438-0.40926 0.0469-1.6 0.88-0.88 1.6-3.88 1.6-6.6667 0-4.1778 0.46784-5.0667 2.6667-5.0667 1.7778 0 2.6667 0.88889 2.6667 2.6667s0.88889 2.6667 2.6667 2.6667c3.9878 0 3.3677 4.3131-2 13.911-2.5667 4.5896-4.6667 9.0371-4.6667 9.8833 0 2.5008 2.5574 1.7691 6.0606-1.7342 1.8-1.8 3.2727-2.8046 3.2727-2.2324s-1.3887 2.3449-3.0859 3.9394c-3.0051 2.8231-7.5659 3.8028-9.3585 2.0102z" fill="#a0a0a0"/>
  <path d="m210.22 89.778c-2.2456-2.2456-0.38848-6.005 5.278-10.685 10.664-8.8068 13.833-12.148 13.833-14.585 0-1.8661-0.95344-1.44-4.5257 2.0224-6.1027 5.915-9.3453 5.2179-9.8802-2.124-0.35384-4.8566 0.24462-6.2919 4.6667-11.192 5.7022-6.3191 11.447-9.2137 18.287-9.2137h4.6339l-3.9244 9.5167c-4.5431 11.017-4.8098 12.774-1.591 10.48 1.2833-0.91463 0.83333-0.20281-1 1.5818-1.8333 1.7846-4.7723 6.0701-6.5311 9.5232-5.1908 10.192-15.71 18.213-19.247 14.676zm8.0356-3.4444c8.3351-9.1843 9.3218-16.061 1.293-9.012-5.5998 4.9167-8.0675 8.7639-6.8671 10.706 1.2355 1.999 2.5982 1.5849 5.5741-1.6942zm8.126-22.848c8.3067-9.0117 12.22-18.152 7.7714-18.152-4.2931 0-18.004 19.676-15.986 22.941 1.229 1.9886 2.8248 1.0583 8.2142-4.7885zm-211.05 5.1648c-6.4364-3.4774-9.8988-7.4222-10.819-12.326-1.9067-10.164 4.432-19.618 17.542-26.163 9.2215-4.6043 16.736-6.1258 29.277-5.9279l10.667 0.1683-12 0.90651c-18.732 1.415-34.969 10.256-40.743 22.183-2.6086 5.3887-2.7609 6.6803-1.345 11.406 4.4249 14.769 33.48 13.912 59.628-1.7584 4.1048-2.46 12.338-9.5542 18.295-15.765 26.272-27.388 36.424-37.375 37.996-37.375 1.1489 0 0.87621 1.1656-0.85778 3.6667-1.3981 2.0167-7.2304 12.667-12.961 23.667-5.7302 11-11.593 21.685-13.028 23.743-1.4349 2.0589-2.3401 4.0123-2.0115 4.3409 0.76032 0.76032 14.143-15.276 30.858-36.975 11.418-14.823 16.102-19.621 17.647-18.076 0.23594 0.23595-1.7075 3.9757-4.3187 8.3105-10.951 18.179-24.492 47.787-24.492 53.553 0 2.3406 0.74642 3.1035 3.0367 3.1035 3.6104 0 7.5295-2.4753 15.617-9.8637 4.9278-4.5017 5.2817-4.6724 2-0.96457-6.3838 7.2129-13.947 12.162-18.587 12.162-13.101 0-9.3162-14.697 12.275-47.667 1.0806-1.65 1.635-3 1.232-3s-5.6949 6.45-11.76 14.333c-11.508 14.958-27.991 32.933-32.353 35.281-2.4302 1.308-2.4238 1.174 0.14793-3.1238 1.4779-2.4697 6.4802-11.69 11.116-20.49 4.636-8.8 10.753-19.816 13.594-24.48 2.8408-4.6641 4.9105-8.7347 4.5994-9.0458-0.31116-0.31116-6.6855 6.3316-14.165 14.762-22.03 24.829-32.863 33.391-50.177 39.659-10.657 3.8579-30.246 4.816-35.91 1.7563zm136.83-0.41563c-5.4147-2.9837-8.0476-7.3307-8.1114-13.392-0.1008-9.5822 15.467-19.222 33.437-20.706l8.5153-0.70284-9.0846 1.9122c-25.507 5.3689-39.078 23.973-23.401 32.08 5.9916 3.0984 22.233 2.0585 30.668-1.9635 11.467-5.4679 16.515-11.106 24.8-27.698 4.227-8.4658 9.593-17.622 11.925-20.347l4.2391-4.9549-6.9875 0.57946c-4.9672 0.41192-10.819-0.48125-20.239-3.0892-16.371-4.5323-27.332-4.7762-35.564-0.79134-7.4283 3.596-12.988 9.3812-14.478 15.064-1.1454 4.3706-1.1544 4.3583-0.56835-0.77934 1.8977-16.638 25.732-22.795 60.858-15.723 10.152 2.0442 15.347 2.5138 18.333 1.6574 2.2917-0.65726 4.1668-0.95777 4.1668-0.66782 0 0.28996-1.8619 2.6478-4.1376 5.2396-2.2806 2.5974-6.168 10.174-8.6615 16.881-2.4882 6.6926-5.7394 14.135-7.2249 16.538-4.2188 6.8261-12.836 13.88-22.455 18.381-11.368 5.3195-28.711 6.5142-36.029 2.4817zm93.441 0.8317c-2.1053-2.1053-2.0274-6.796 0.20139-12.13 2.0582-4.9259 10.577-12.936 13.758-12.936 1.5034 0 1.0828 0.82642-1.4239 2.7982-4.9153 3.8664-10.52 15.315-9.8223 20.066 0.60142 4.0977-0.18223 4.7339-2.7134 2.2028zm11.342-3.0756c3.9389-3.9388 4.5189-5.252 3.6808-8.3333-1.2442-4.5743-1.0995-8.3812 0.37452-9.8553 0.62335-0.62334 0.88825 0.96611 0.58869 3.5321-0.33336 2.8554 0.0292 4.6655 0.93454 4.6655 1.3602 0 2.1048-3.6156 1.5787-7.6667-0.11906-0.91667 0.46391-1.6667 1.2954-1.6667 0.97839 0 1.3519 2.2348 1.0585 6.3333-0.38688 5.4038-1.2926 7.165-6.1713 12-3.1448 3.1167-6.2348 5.6667-6.8667 5.6667-0.63185 0 0.9552-2.104 3.5268-4.6756zm16.808 2.5052c-0.477-1.243 1.2337-6.3469 4.0037-11.945 4.6534-9.4043 4.7404-14.931 0.12414-7.8855-2.2139 3.3788-4.4774 3.7949-2.4053 0.44212 0.59016-0.9549 0.89964-3.7486 0.68773-6.2081-0.32152-3.732 0.0195-4.3886 2.0605-3.9681 1.3452 0.27711 2.3624 1.5309 2.2606 2.7861-0.12734 1.5689 0.81041 2.2822 3 2.2822 4.4019 0 4.0703 2.9116-1.5118 13.271-6.5605 12.176-6.1044 14.925 1.5171 9.1448l3.8465-2.9171-3.2324 3.5838c-3.6031 3.9947-9.0736 4.7417-10.351 1.4133zm-84.667-33.407c0.9625-0.38516 2.1125-0.33779 2.5556 0.10527 0.44306 0.44306-0.34445 0.75819-1.75 0.70029-1.5533-0.06397-1.8692-0.37992-0.80556-0.80556zm-124.42-8.4225c-1.7583-0.75558-1.9854-1.1709-0.66667-1.2192 1.1-0.04031 2.9 0.50833 4 1.2192 2.4373 1.5751 0.33211 1.5751-3.3333 0z" fill="#898989"/>
  <path d="m209.78 88.563c-1.006-2.6215 2.8514-7.9125 8.9296-12.248 3.7552-2.6786 3.9994-2.7403 1.2949-0.32693-7.187 6.4133-10.428 14.292-5.3315 12.959 1.4677-0.38381 2.3323-0.15378 1.9213 0.51116-1.2284 1.9877-5.9458 1.368-6.8143-0.89512zm12.789-7.4333c3.0881-5.528 3.7518-7.7216 2.4895-8.2281-1.2885-0.51705-1.3066-0.71708-0.0723-0.79589 1.3832-0.0883 5.6846-8.056 5.6846-10.53 0-0.42096-2.229 1.3023-4.9533 3.8295-4.831 4.4815-4.8174 4.4423 0.55359-1.586 8.7716-9.8452 12.314-18.486 7.5795-18.486-2.9064 0-10.57 8.5659-13.997 15.644-2.3403 4.8344-2.5048 6.0961-1.0272 7.8766 1.5163 1.827 1.3968 2.0508-0.86473 1.6193-2.8423-0.54236-4.0122-4.7512-2.7351-9.8397 1.155-4.6018 7.102-11.072 12.892-14.026 5.2088-2.6573 13.219-3.541 13.219-1.4583 0 0.63247-1.791 5.4932-3.98 10.802-3.3618 8.1526-3.6207 9.5267-1.6667 8.8468 2.1034-0.73187 2.0962-0.63608-0.0791 1.0552-1.3159 1.0231-3.8615 4.8082-5.657 8.4112-1.7955 3.6031-5.1392 8.3175-7.4304 10.476l-4.1659 3.9254zm-198.23-11.434c2.75-0.28766 7.25-0.28766 10 0 2.75 0.28766 0.5 0.52302-5 0.52302s-7.75-0.23536-5-0.52302zm62.668-3.8357c1.8725-2.9662 6.2298-11.048 9.6829-17.96 3.4531-6.9117 9.2118-17.45 12.797-23.418 6.8427-11.391 7.5846-13.191 4.8522-11.775-0.91666 0.4752 0.57453-1.2894 3.3138-3.9213 6.4732-6.2196 8.5163-6.1146 4.1815 0.2147-1.8834 2.75-7.5063 13.1-12.495 23s-10.63 20.277-12.535 23.059c-4.776 6.9742-4.3404 7.6042 1.5228 2.2023 3.6981-3.4071 4.129-3.6125 1.6667-0.79437-1.8264 2.0903-6.2615 6.2722-9.8557 9.293l-6.5351 5.4925zm24.428 2.7117c-4.4707-4.4707-0.96872-14.822 12.633-37.341 6.8748-11.382 7.7346-13.418 4.938-11.694-0.91667 0.5649 0.93687-2.2497 4.119-6.2546 6.2559-7.8736 13.31-12.52 8.9838-5.9181-11.068 16.892-30.194 58.477-27.894 60.649 0.61832 0.58381 2.3242 1.3501 3.7909 1.7029 2.0641 0.49649 1.8597 0.67636-0.90476 0.79609-1.9643 0.08507-4.5143-0.78819-5.6667-1.9406zm50.268 1.1222c2.7664-0.28864 6.9664-0.2838 9.3333 0.0108 2.367 0.29455 0.1036 0.5307-5.0297 0.52479-5.1333-0.0059-7.07-0.24691-4.3036-0.53554zm84.399-1.1222c-1.1524-1.1524-2.0821-3.1024-2.066-4.3333 0.0553-4.2271 4.9286-13.018 9.2166-16.627 5.7602-4.8469 7.4033-4.5886 2.7178 0.42732-4.6428 4.9701-8.513 14.714-7.646 19.25 0.75664 3.9581 0.56388 4.0694-2.2225 1.283zm28.523 0.03648c-1.4272-1.7197-0.90512-3.597 3.1701-11.399 2.6833-5.1369 4.8787-10.21 4.8787-11.275 0-1.0641 0.9-1.9348 2-1.9348 3.1503 0 2.3742 3.7644-2.6667 12.935-5.0046 9.1049-5.6309 11.787-3 12.848 1.0612 0.42821 0.87836 0.71075-0.50341 0.77778-1.1935 0.05789-2.939-0.82118-3.8787-1.9535zm-231.95-0.60791c4.5589-1.46 8.0643-1.46 4.6667 0-1.4667 0.63025-3.8667 1.1283-5.3333 1.1067-2.1437-0.031508-2.013-0.24854 0.66667-1.1067zm139.52-1.3272c11.65-4.677 18.369-11.842 26.72-28.494 7.6808-15.315 13.068-23.512 15.454-23.512 0.75994 0 0.48466 1.05-0.61175 2.3333-1.0964 1.2833-3.3789 6.2333-5.0722 11-4.8296 13.595-10.69 23.8-16.547 28.813-5.961 5.1024-16.634 10.644-22.801 11.838-2.3162 0.44862-1.1132-0.38417 2.8579-1.9784zm76.198-1.9229c3.2014-4.0123 3.8406-5.6698 2.7114-7.0305-1.1398-1.3734-1.0188-1.6044 0.52965-1.0102 1.4432 0.55381 2.2439-0.41284 2.8493-3.4398 0.46311-2.3155 0.45665-4.8984-0.0143-5.7398-0.63545-1.1351-0.42614-1.1328 0.81142 0.0091 3.2045 2.9568 0.40682 11.594-5.5954 17.274l-5.481 5.187zm24.944 1.9167c1.3273-1.4667 2.7133-2.6667 3.08-2.6667 0.36666 0-0.41932 1.2-1.7466 2.6667-1.3273 1.4667-2.7133 2.6667-3.08 2.6667-0.36666 0 0.41932-1.2 1.7466-2.6667zm-135.88-2.769c-4.258-5.0603-4.3871-10.116-0.40906-16.019 3.6092-5.3557 15.07-11.418 23.636-12.503l5.9878-0.75853-5.3333 1.8007c-19.61 6.6209-29.011 18.385-22.129 27.693 3.794 5.1317 2.6254 4.9898-1.7523-0.21273zm-139.38-0.78101c-13.749-17.48 10.857-39.634 43.212-38.905l9.3865 0.21124-11.446 0.81038c-9.5895 0.67893-13.092 1.624-21.595 5.826-17.373 8.5864-24.361 20.066-18.607 30.57 3.2439 5.9223 2.927 6.4182-0.95099 1.4882zm45.266 1.55c1.8333-1.048 3.9333-1.9055 4.6667-1.9055s-0.16667 0.85748-2 1.9055-3.9333 1.9055-4.6667 1.9055c-0.73333 0 0.16667-0.85748 2-1.9055zm79.333-4.6667c2.8643-2.9333 5.5079-5.3333 5.8745-5.3333s-1.6769 2.4-4.5412 5.3333c-2.8643 2.9333-5.5079 5.3333-5.8745 5.3333-0.36666 0 1.6769-2.4 4.5412-5.3333zm-68.154-0.28405c11.8-8.0603 19.489-14.97 30.748-27.634 13.605-15.302 18.635-19.912 8.5306-7.8178-10.955 13.113-29.801 31.079-35.791 34.12-3.3 1.6758-4.8695 2.2748-3.4878 1.331zm195.49-8.3039c0-1.7901 0.49144-3.5584 1.0921-3.9296 0.60064-0.37122 0.83253 1.0934 0.51533 3.2546-0.69938 4.7652-1.6074 5.1465-1.6074 0.67494zm-152.09-5.7454c3.2112-3.85 6.0951-7 6.4086-7 0.90507 0-7.3067 10.06-9.9002 12.128-1.2908 1.0295 0.28045-1.2783 3.4917-5.1283zm166.75 5.2585c0-0.78895 0.56049-1.7809 1.2455-2.2042 0.68504-0.42338 0.89664-2.9198 0.4702-5.5476-0.67809-4.1786-0.45804-4.7163 1.7545-4.2874 3.4293 0.66482 3.2197 4.9698-0.4702 9.6603-1.65 2.0974-3 3.1679-3 2.379zm-154-21.592c3.3857-4.4 6.4559-8 6.8225-8 0.36667 0-2.1035 3.6-5.4892 8-3.3857 4.4-6.4559 8-6.8225 8-0.36666 0 2.1035-3.6 5.4892-8zm26.115-4.8028c-0.29991-7.335 14.777-19.415 23.791-19.063 2.6845 0.1049 2.3342 0.39139-1.6157 1.3215-10.118 2.3826-18.668 9.2052-20.905 16.684-0.89092 2.9772-1.1816 3.2194-1.27 1.0581zm56.552-13.311c-3.6667-1.1089-11.767-3.1953-18-4.6364l-11.333-2.6203 10 0.70482c5.5 0.38765 16.404 1.971 24.23 3.5185 11.62 2.2976 15.038 2.5319 18.636 1.2777 3.4613-1.2066 4.0581-1.188 2.7834 0.086756-3.4098 3.4098-17.587 4.3089-26.316 1.669z" fill="#797979"/>
 </g>
</svg>
